# xmcd
#
# Track frame offsets:
#	150
#	16265
#	33384
#	55469
#	71940
#	89656
#	109551
#	127424
#	143336
#	159147
#	174879
#	189294
#	210885
#	225022
#	242841
#	258034
#	273186
#	291428
#	310758
#	328089
#
# Disc length: 4574 seconds
#
# Revision: 0
# Processed by: cddbd v1.5.2PL0 Copyright (c) Steve Scherf et al.
# Submitted via: EasyCDDAExtractor 16.0.9.1
#
DISCID=0b11dc14
DTITLE=Hott Urban Trakks Volume 3 CAN
DYEAR=2015
DGENRE=blues
TTITLE0=Fetty Wap ft. Monty\n - My Way\n
TTITLE1=Chris Brown\n - Liquor\n
TTITLE2=J. Cole\n - No Role Modelz\n
TTITLE3=Lil Wayne and Charlie Puth\n - Nothing But Trouble\n
TTITLE4=Yo Gotti ft. Young Thug\n - Rihanna\n
TTITLE5=Ray J ft. Lil Wayne\n - Brown Sugar\n
TTITLE6=D.R.A.M.\n - Cha Cha\n
TTITLE7=Sevyn Streeter ft B.o.B.\n - Shoulda Been There\n
TTITLE8=Robin Thicke\n - Morning Sun\n
TTITLE9=Future ft. Drake\n - Where Ya At\n
TTITLE10=Jay 305 ft. Joe Moses\n - Thuggin'\n
TTITLE11=The Game ft. Drake\n - 100\n
TTITLE12=Chinx\n - On Your Body\n
TTITLE13=Rico Love\n - Happy Birthday\n
TTITLE14=T-Pain ft. Juicy J\n - Make That Sh*t Work\n
TTITLE15=Bryson Tiller\n - Don't\n
TTITLE16=Dej Loaf ft. Big Sean\n - Back Up\n
TTITLE17=YG\n - Twist My Fingaz\n
TTITLE18=Ty Dolla $ign ft. Future and Rae Sremmurd\n - Blase\n
TTITLE19=Avant\n - Special\n
EXTD=
EXTT0=
EXTT1=
EXTT2=
EXTT3=
EXTT4=
EXTT5=
EXTT6=
EXTT7=
EXTT8=
EXTT9=
EXTT10=
EXTT11=
EXTT12=
EXTT13=
EXTT14=
EXTT15=
EXTT16=
EXTT17=
EXTT18=
EXTT19=
PLAYORDER=
